%TF.GenerationSoftware,KiCad,Pcbnew,10.0.0*%
%TF.CreationDate,2026-05-28T19:41:03-07:00*%
%TF.ProjectId,adapter,61646170-7465-4722-9e6b-696361645f70,rev?*%
%TF.SameCoordinates,Original*%
%TF.FileFunction,Copper,L1,Top*%
%TF.FilePolarity,Positive*%
%FSLAX46Y46*%
G04 Gerber Fmt 4.6, Leading zero omitted, Abs format (unit mm)*
G04 Created by KiCad (PCBNEW 10.0.0) date 2026-05-28 19:41:03*
%MOMM*%
%LPD*%
G01*
G04 APERTURE LIST*
G04 Aperture macros list*
%AMRoundRect*
0 Rectangle with rounded corners*
0 $1 Rounding radius*
0 $2 $3 $4 $5 $6 $7 $8 $9 X,Y pos of 4 corners*
0 Add a 4 corners polygon primitive as box body*
4,1,4,$2,$3,$4,$5,$6,$7,$8,$9,$2,$3,0*
0 Add four circle primitives for the rounded corners*
1,1,$1+$1,$2,$3*
1,1,$1+$1,$4,$5*
1,1,$1+$1,$6,$7*
1,1,$1+$1,$8,$9*
0 Add four rect primitives between the rounded corners*
20,1,$1+$1,$2,$3,$4,$5,0*
20,1,$1+$1,$4,$5,$6,$7,0*
20,1,$1+$1,$6,$7,$8,$9,0*
20,1,$1+$1,$8,$9,$2,$3,0*%
G04 Aperture macros list end*
%TA.AperFunction,SMDPad,CuDef*%
%ADD10RoundRect,0.100000X-0.850000X-0.100000X0.850000X-0.100000X0.850000X0.100000X-0.850000X0.100000X0*%
%TD*%
%TA.AperFunction,SMDPad,CuDef*%
%ADD11RoundRect,0.090000X0.785000X-0.090000X0.785000X0.090000X-0.785000X0.090000X-0.785000X-0.090000X0*%
%TD*%
%TA.AperFunction,SMDPad,CuDef*%
%ADD12RoundRect,0.102500X0.672500X-0.102500X0.672500X0.102500X-0.672500X0.102500X-0.672500X-0.102500X0*%
%TD*%
%TA.AperFunction,SMDPad,CuDef*%
%ADD13RoundRect,0.065000X0.710000X-0.065000X0.710000X0.065000X-0.710000X0.065000X-0.710000X-0.065000X0*%
%TD*%
%TA.AperFunction,SMDPad,CuDef*%
%ADD14RoundRect,0.065000X-0.710000X0.065000X-0.710000X-0.065000X0.710000X-0.065000X0.710000X0.065000X0*%
%TD*%
%TA.AperFunction,SMDPad,CuDef*%
%ADD15RoundRect,0.250000X-0.450000X-0.350000X0.450000X-0.350000X0.450000X0.350000X-0.450000X0.350000X0*%
%TD*%
%TA.AperFunction,SMDPad,CuDef*%
%ADD16RoundRect,0.250000X0.262500X0.450000X-0.262500X0.450000X-0.262500X-0.450000X0.262500X-0.450000X0*%
%TD*%
%TA.AperFunction,SMDPad,CuDef*%
%ADD17RoundRect,0.250000X-0.250000X-0.475000X0.250000X-0.475000X0.250000X0.475000X-0.250000X0.475000X0*%
%TD*%
%TA.AperFunction,SMDPad,CuDef*%
%ADD18R,2.200000X1.600000*%
%TD*%
%TA.AperFunction,SMDPad,CuDef*%
%ADD19RoundRect,0.250000X-0.262500X-0.450000X0.262500X-0.450000X0.262500X0.450000X-0.262500X0.450000X0*%
%TD*%
%TA.AperFunction,SMDPad,CuDef*%
%ADD20R,2.200000X2.800000*%
%TD*%
%TA.AperFunction,SMDPad,CuDef*%
%ADD21R,2.800000X2.800000*%
%TD*%
%TA.AperFunction,ComponentPad*%
%ADD22RoundRect,0.249999X0.790001X1.550001X-0.790001X1.550001X-0.790001X-1.550001X0.790001X-1.550001X0*%
%TD*%
%TA.AperFunction,ComponentPad*%
%ADD23O,2.080000X3.600000*%
%TD*%
%TA.AperFunction,ViaPad*%
%ADD24C,0.600000*%
%TD*%
%TA.AperFunction,Conductor*%
%ADD25C,0.200000*%
%TD*%
G04 APERTURE END LIST*
D10*
%TO.P,U1,1,D+_1*%
%TO.N,Net-(U1-D+)*%
X176000000Y-76275000D03*
%TO.P,U1,2,D-_2*%
%TO.N,Net-(U1-D-)*%
X176000000Y-76925000D03*
%TO.P,U1,3,VBUS_3*%
%TO.N,VBUS*%
X176000000Y-77575000D03*
%TO.P,U1,4,DGNDU_4*%
%TO.N,GND*%
X176000000Y-78225000D03*
%TO.P,U1,5,HID0_5*%
%TO.N,unconnected-(U1-HID0-Pad5)*%
X176000000Y-78875000D03*
%TO.P,U1,6,HID1_6*%
%TO.N,unconnected-(U1-HID1-Pad6)*%
X176000000Y-79525000D03*
%TO.P,U1,7,HID2_7*%
%TO.N,unconnected-(U1-HID2-Pad7)*%
X176000000Y-80175000D03*
%TO.P,U1,8,SEL0_8*%
%TO.N,unconnected-(U1-SEL0-Pad8)*%
X176000000Y-80825000D03*
%TO.P,U1,9,SEL1_9*%
%TO.N,unconnected-(U1-SEL1-Pad9)*%
X176000000Y-81475000D03*
%TO.P,U1,10,VCCCI_10*%
%TO.N,Net-(U1-VCCCI)*%
X176000000Y-82125000D03*
%TO.P,U1,11,AGNDC_11*%
%TO.N,GND*%
X176000000Y-82775000D03*
%TO.P,U1,12,VINL_12*%
%TO.N,unconnected-(U1-VINL-Pad12)*%
X176000000Y-83425000D03*
%TO.P,U1,13,VINR_13*%
%TO.N,unconnected-(U1-VINR-Pad13)*%
X176000000Y-84075000D03*
%TO.P,U1,14,VCOM_14*%
%TO.N,Net-(U1-VCOM)*%
X176000000Y-84725000D03*
%TO.P,U1,15,VOUTR_15*%
%TO.N,R_out*%
X183000000Y-84725000D03*
%TO.P,U1,16,VOUTL_16*%
%TO.N,L_out*%
X183000000Y-84075000D03*
%TO.P,U1,17,VCCP1I_17*%
%TO.N,Net-(U1-VCCP1I)*%
X183000000Y-83425000D03*
%TO.P,U1,18,AGNDP_18*%
%TO.N,GND*%
X183000000Y-82775000D03*
%TO.P,U1,19,VCCP2I_19*%
%TO.N,Net-(U1-VCCP2I)*%
X183000000Y-82125000D03*
%TO.P,U1,20,XTO_20*%
%TO.N,XTO*%
X183000000Y-81475000D03*
%TO.P,U1,21,XTI_21*%
%TO.N,XTI*%
X183000000Y-80825000D03*
%TO.P,U1,22,AGNDX_22*%
%TO.N,GND*%
X183000000Y-80175000D03*
%TO.P,U1,23,VCCXI_23*%
%TO.N,Net-(U1-VCCXI)*%
X183000000Y-79525000D03*
%TO.P,U1,24,DIN_24*%
%TO.N,unconnected-(U1-DIN-Pad24)*%
X183000000Y-78875000D03*
%TO.P,U1,25,DOUT_25*%
%TO.N,unconnected-(U1-DOUT-Pad25)*%
X183000000Y-78225000D03*
%TO.P,U1,26,DGND_26*%
%TO.N,GND*%
X183000000Y-77575000D03*
%TO.P,U1,27,VDDI_27*%
%TO.N,Net-(U1-VDDI)*%
X183000000Y-76925000D03*
%TO.P,U1,28,~{SSPND}_28*%
%TO.N,unconnected-(U1-~{SSPND}-Pad28)*%
X183000000Y-76275000D03*
%TD*%
D11*
%TO.P,P1,*%
%TO.N,*%
X196792157Y-84655000D03*
X196792157Y-77845000D03*
D12*
%TO.P,P1,A1,GND_A1*%
%TO.N,GND*%
X196892157Y-78425000D03*
D13*
%TO.P,P1,A2,TX1+_A2*%
%TO.N,unconnected-(P1-TX1+-PadA2)*%
X196892157Y-79000000D03*
%TO.P,P1,A3,TX1-_A3*%
%TO.N,unconnected-(P1-TX1--PadA3)*%
X196892157Y-79500000D03*
%TO.P,P1,A4,VBUS_A4*%
%TO.N,VBUS*%
X196892157Y-80000000D03*
%TO.P,P1,A5,CC_A5*%
%TO.N,Net-(P1-CC)*%
X196892157Y-80500000D03*
D14*
%TO.P,P1,A6,D+_A6*%
%TO.N,D+*%
X196892157Y-81000000D03*
%TO.P,P1,A7,D-_A7*%
%TO.N,D-*%
X196892157Y-81500000D03*
D13*
%TO.P,P1,A8,SBU1_A8*%
%TO.N,unconnected-(P1-SBU1-PadA8)*%
X196892157Y-82000000D03*
%TO.P,P1,A9,VBUS_A9*%
%TO.N,VBUS*%
X196892157Y-82500000D03*
%TO.P,P1,A10,RX2-_A10*%
%TO.N,unconnected-(P1-RX2--PadA10)*%
X196892157Y-83000000D03*
%TO.P,P1,A11,RX2+_A11*%
%TO.N,unconnected-(P1-RX2+-PadA11)*%
X196892157Y-83500000D03*
D12*
%TO.P,P1,A12,GND_A12*%
%TO.N,GND*%
X196892157Y-84075000D03*
%TD*%
D15*
%TO.P,Y1,1,1_1*%
%TO.N,XTO*%
X178500000Y-66200000D03*
%TO.P,Y1,2,G_2*%
%TO.N,GND*%
X180700000Y-66200000D03*
%TO.P,Y1,3,3_3*%
%TO.N,XTI*%
X180700000Y-64500000D03*
%TO.P,Y1,4,G_4*%
%TO.N,GND*%
X178500000Y-64500000D03*
%TD*%
D16*
%TO.P,R3,1*%
%TO.N,Net-(U1-D+)*%
X166912500Y-79000000D03*
%TO.P,R3,2*%
%TO.N,D+*%
X165087500Y-79000000D03*
%TD*%
D17*
%TO.P,C6,1*%
%TO.N,XTI*%
X184050000Y-64500000D03*
%TO.P,C6,2*%
%TO.N,GND*%
X185950000Y-64500000D03*
%TD*%
D16*
%TO.P,R4,1*%
%TO.N,Net-(U1-D-)*%
X166912500Y-83000000D03*
%TO.P,R4,2*%
%TO.N,D-*%
X165087500Y-83000000D03*
%TD*%
D18*
%TO.P,C3,1*%
%TO.N,L_out*%
X130700000Y-71900000D03*
%TO.P,C3,2*%
%TO.N,Net-(C3-Pad2)*%
X127700000Y-71900000D03*
%TD*%
D17*
%TO.P,C8,1*%
%TO.N,GND*%
X188550000Y-89500000D03*
%TO.P,C8,2*%
%TO.N,Net-(U1-VCCP1I)*%
X190450000Y-89500000D03*
%TD*%
%TO.P,C2,1*%
%TO.N,GND*%
X178050000Y-71500000D03*
%TO.P,C2,2*%
%TO.N,Net-(U1-VDDI)*%
X179950000Y-71500000D03*
%TD*%
D18*
%TO.P,C4,1*%
%TO.N,R_out*%
X116900000Y-71000000D03*
%TO.P,C4,2*%
%TO.N,Net-(C4-Pad2)*%
X119900000Y-71000000D03*
%TD*%
D17*
%TO.P,C7,1*%
%TO.N,XTO*%
X182550000Y-71500000D03*
%TO.P,C7,2*%
%TO.N,GND*%
X184450000Y-71500000D03*
%TD*%
%TO.P,C10,1*%
%TO.N,GND*%
X172550000Y-72500000D03*
%TO.P,C10,2*%
%TO.N,Net-(U1-VCCXI)*%
X174450000Y-72500000D03*
%TD*%
D19*
%TO.P,R2,1*%
%TO.N,GND*%
X187054657Y-83500000D03*
%TO.P,R2,2*%
%TO.N,Net-(P1-VCONN)*%
X188879657Y-83500000D03*
%TD*%
D17*
%TO.P,C9,1*%
%TO.N,GND*%
X181050000Y-89000000D03*
%TO.P,C9,2*%
%TO.N,Net-(U1-VCCP2I)*%
X182950000Y-89000000D03*
%TD*%
D19*
%TO.P,R1,1*%
%TO.N,GND*%
X187142157Y-79000000D03*
%TO.P,R1,2*%
%TO.N,Net-(P1-CC)*%
X188967157Y-79000000D03*
%TD*%
D20*
%TO.P,J2,R*%
%TO.N,Net-(C4-Pad2)*%
X117400000Y-75800000D03*
%TO.P,J2,S*%
%TO.N,GND*%
X115400000Y-83200000D03*
D21*
%TO.P,J2,T*%
%TO.N,Net-(C3-Pad2)*%
X124800000Y-83200000D03*
%TD*%
D16*
%TO.P,R5,1*%
%TO.N,XTI*%
X187912500Y-68500000D03*
%TO.P,R5,2*%
%TO.N,XTO*%
X186087500Y-68500000D03*
%TD*%
D22*
%TO.P,J1,1,VBUS_1*%
%TO.N,VBUS*%
X160240000Y-79500000D03*
D23*
%TO.P,J1,2,GND_2*%
%TO.N,GND*%
X155160000Y-79500000D03*
%TO.P,J1,3,D-_3*%
%TO.N,D-*%
X150080000Y-79500000D03*
%TO.P,J1,4,D+_4*%
%TO.N,D+*%
X145000000Y-79500000D03*
%TO.P,J1,5,L_out_5*%
%TO.N,L_out*%
X139920000Y-79500000D03*
%TO.P,J1,6,R_out_6*%
%TO.N,R_out*%
X134840000Y-79500000D03*
%TD*%
D17*
%TO.P,C5,1*%
%TO.N,GND*%
X172750000Y-89400000D03*
%TO.P,C5,2*%
%TO.N,Net-(U1-VCOM)*%
X174650000Y-89400000D03*
%TD*%
%TO.P,C11,1*%
%TO.N,GND*%
X168050000Y-74000000D03*
%TO.P,C11,2*%
%TO.N,Net-(U1-VCCCI)*%
X169950000Y-74000000D03*
%TD*%
D24*
%TO.N,Net-(U1-D+)*%
X166100000Y-78626981D03*
X177626473Y-76600000D03*
%TO.N,Net-(U1-D-)*%
X169400000Y-83000000D03*
X171889858Y-80700000D03*
%TO.N,VBUS*%
X180000000Y-74000000D03*
X191000000Y-83500000D03*
X162370000Y-77370000D03*
X177500000Y-77500000D03*
X192800000Y-79600000D03*
%TO.N,GND*%
X181000000Y-78000000D03*
X186500000Y-91000000D03*
X191467157Y-78600000D03*
X187054657Y-83500000D03*
X183000000Y-67500000D03*
X181500000Y-80500000D03*
X194572157Y-77980000D03*
X181000000Y-82825000D03*
X171000000Y-72000000D03*
X176500000Y-71500000D03*
X194572157Y-84750000D03*
X172200000Y-89400000D03*
X118000000Y-84000000D03*
X156410000Y-79500000D03*
%TO.N,Net-(U1-VCCCI)*%
X174174265Y-75674265D03*
X171000000Y-74500000D03*
X174000000Y-79500000D03*
X173132282Y-77425735D03*
%TO.N,Net-(U1-VCOM)*%
X172500000Y-83900000D03*
X174452537Y-83847463D03*
%TO.N,R_out*%
X178600000Y-84133578D03*
X170695341Y-81614248D03*
%TO.N,L_out*%
X181000000Y-84133578D03*
X166400000Y-76700000D03*
%TO.N,Net-(U1-VCCP1I)*%
X190500000Y-85500000D03*
X184947463Y-83447463D03*
%TO.N,Net-(U1-VCCP2I)*%
X177500000Y-86900000D03*
X177500000Y-84733578D03*
%TO.N,XTO*%
X186500000Y-71000000D03*
X184500000Y-81500000D03*
%TO.N,XTI*%
X186500000Y-77700000D03*
X186400000Y-81100000D03*
X191100000Y-75500000D03*
X190274265Y-77525735D03*
%TO.N,Net-(U1-VCCXI)*%
X177500000Y-73400000D03*
X178500000Y-77000000D03*
%TO.N,Net-(U1-VDDI)*%
X179000000Y-73400000D03*
X179000000Y-76375000D03*
%TO.N,Net-(P1-VCONN)*%
X190967157Y-82500000D03*
%TD*%
%TO.N,Net-(U1-D+)*%
D25*
X177626473Y-76600000D02*
X177301473Y-76275000D01*
X166473019Y-79000000D02*
X166100000Y-78626981D01*
X177301473Y-76275000D02*
X176000000Y-76275000D01*
X166912500Y-79000000D02*
X166473019Y-79000000D01*
%TO.N,Net-(U1-D-)*%
X166912500Y-83000000D02*
X169400000Y-83000000D01*
X171889858Y-80700000D02*
X171889858Y-80082372D01*
X175047230Y-76925000D02*
X176000000Y-76925000D01*
X171889858Y-80082372D02*
X175047230Y-76925000D01*
X171889858Y-80610142D02*
X172000000Y-80500000D01*
X171889858Y-80700000D02*
X171889858Y-80610142D01*
%TO.N,VBUS*%
X196892157Y-82500000D02*
X196099169Y-82500000D01*
X182000000Y-74000000D02*
X182600000Y-74600000D01*
X196099169Y-82500000D02*
X195817157Y-82782012D01*
X171000001Y-78000000D02*
X175000001Y-74000000D01*
X196892157Y-80000000D02*
X193200000Y-80000000D01*
X191600000Y-84100000D02*
X191000000Y-83500000D01*
X195817157Y-82923529D02*
X194640686Y-84100000D01*
X193200000Y-80000000D02*
X192800000Y-79600000D01*
X182600000Y-74600000D02*
X189100000Y-74600000D01*
X163000000Y-78000000D02*
X171000001Y-78000000D01*
X192800000Y-78300000D02*
X189100000Y-74600000D01*
X160240000Y-79500000D02*
X160240000Y-79260000D01*
X194640686Y-84100000D02*
X191600000Y-84100000D01*
X160240000Y-79260000D02*
X160500000Y-79000000D01*
X182000000Y-74000000D02*
X180000000Y-74000000D01*
X176075000Y-77500000D02*
X176000000Y-77575000D01*
X175000001Y-74000000D02*
X180000000Y-74000000D01*
X195817157Y-82782012D02*
X195817157Y-82923529D01*
X162370000Y-77370000D02*
X163000000Y-78000000D01*
X192800000Y-79600000D02*
X192800000Y-78300000D01*
X177500000Y-77500000D02*
X176075000Y-77500000D01*
%TO.N,GND*%
X179959744Y-70000000D02*
X178000000Y-70000000D01*
X172200000Y-89400000D02*
X172100000Y-89400000D01*
X170050000Y-72000000D02*
X168050000Y-74000000D01*
X171000000Y-72000000D02*
X170050000Y-72000000D01*
X115400000Y-83200000D02*
X117200000Y-83200000D01*
X194572157Y-77980000D02*
X195000000Y-78407843D01*
X187054657Y-83500000D02*
X187277328Y-83722672D01*
X194572157Y-84750000D02*
X195247157Y-84075000D01*
X187000000Y-90500000D02*
X188000000Y-89500000D01*
X188304657Y-84750000D02*
X187054657Y-83500000D01*
X181050000Y-82775000D02*
X181000000Y-82825000D01*
X189900001Y-78000000D02*
X190500001Y-78600000D01*
X190500001Y-78600000D02*
X191467157Y-78600000D01*
X182000000Y-90500000D02*
X187000000Y-90500000D01*
X180500000Y-89000000D02*
X182000000Y-90500000D01*
X180700000Y-66200000D02*
X181700000Y-66200000D01*
X180750000Y-70790256D02*
X179959744Y-70000000D01*
X178050000Y-71500000D02*
X176500000Y-71500000D01*
X188000000Y-89500000D02*
X186500000Y-91000000D01*
X179525000Y-63475000D02*
X184925000Y-63475000D01*
X182950000Y-82825000D02*
X183000000Y-82775000D01*
X155160000Y-79500000D02*
X156410000Y-79500000D01*
X179159314Y-78225000D02*
X181434314Y-80500000D01*
X155160000Y-79500000D02*
X155000000Y-79500000D01*
X178159314Y-82775000D02*
X180434314Y-80500000D01*
X183000000Y-80175000D02*
X181825000Y-80175000D01*
X181425000Y-77575000D02*
X183000000Y-77575000D01*
X184925000Y-63475000D02*
X185950000Y-64500000D01*
X178500000Y-64500000D02*
X180200000Y-66200000D01*
X181825000Y-80175000D02*
X181500000Y-80500000D01*
X117200000Y-83200000D02*
X118000000Y-84000000D01*
X181434314Y-80500000D02*
X181500000Y-80500000D01*
X176000000Y-82775000D02*
X178159314Y-82775000D01*
X178500000Y-64500000D02*
X179525000Y-63475000D01*
X195000000Y-78407843D02*
X195000000Y-78425000D01*
X180200000Y-66200000D02*
X180700000Y-66200000D01*
X180750000Y-71250000D02*
X180750000Y-70790256D01*
X183000000Y-82775000D02*
X181050000Y-82775000D01*
X172550000Y-72500000D02*
X171500000Y-72500000D01*
X180434314Y-80500000D02*
X181500000Y-80500000D01*
X181700000Y-66200000D02*
X183000000Y-67500000D01*
X172100000Y-89400000D02*
X172000000Y-89500000D01*
X187142157Y-79000000D02*
X188142157Y-78000000D01*
X188142157Y-78000000D02*
X189900001Y-78000000D01*
X181000000Y-78000000D02*
X181425000Y-77575000D01*
X182025000Y-72525000D02*
X180750000Y-71250000D01*
X195000000Y-78425000D02*
X196892157Y-78425000D01*
X195247157Y-84075000D02*
X196892157Y-84075000D01*
X183425000Y-72525000D02*
X182025000Y-72525000D01*
X171500000Y-72500000D02*
X171000000Y-72000000D01*
X194572157Y-84750000D02*
X188304657Y-84750000D01*
X178000000Y-70000000D02*
X176500000Y-71500000D01*
X155000000Y-79500000D02*
X154500000Y-80000000D01*
X184450000Y-71500000D02*
X183425000Y-72525000D01*
X176000000Y-78225000D02*
X179159314Y-78225000D01*
%TO.N,Net-(U1-VCCCI)*%
X176000000Y-82125000D02*
X175050001Y-82125000D01*
X173132282Y-76433404D02*
X173891421Y-75674265D01*
X173132282Y-77425735D02*
X173132282Y-76433404D01*
X174000000Y-81074999D02*
X174000000Y-79500000D01*
X175050001Y-82125000D02*
X174000000Y-81074999D01*
X171000000Y-74500000D02*
X170450000Y-74500000D01*
X170450000Y-74500000D02*
X169950000Y-74000000D01*
X173891421Y-75674265D02*
X174174265Y-75674265D01*
%TO.N,Net-(U1-VCOM)*%
X174452537Y-83847463D02*
X174452537Y-84127536D01*
X175050001Y-84725000D02*
X176000000Y-84725000D01*
X176000000Y-84725000D02*
X176125000Y-84725000D01*
X174452537Y-84127536D02*
X175050001Y-84725000D01*
X175200000Y-86600000D02*
X172500000Y-83900000D01*
X175200000Y-89400000D02*
X175200000Y-86600000D01*
%TO.N,R_out*%
X183000000Y-84725000D02*
X182975000Y-84750000D01*
X120200000Y-84900000D02*
X123100000Y-84900000D01*
X170695341Y-81614248D02*
X170885752Y-81614248D01*
X170889858Y-81610142D02*
X170885752Y-81614248D01*
X168500000Y-84900000D02*
X136000000Y-84900000D01*
X123100000Y-84900000D02*
X136000000Y-84900000D01*
X182991422Y-84733578D02*
X183000000Y-84725000D01*
X170695341Y-82704659D02*
X168500000Y-84900000D01*
X170695341Y-81614248D02*
X170695341Y-82704659D01*
X182975000Y-84750000D02*
X182975000Y-84825000D01*
X178600000Y-84133578D02*
X179200000Y-84733578D01*
X115300000Y-72600000D02*
X115300000Y-80000000D01*
X115300000Y-80000000D02*
X120200000Y-84900000D01*
X170889858Y-81610142D02*
X170889858Y-81500000D01*
X182975000Y-84825000D02*
X183200000Y-84825000D01*
X116900000Y-71000000D02*
X115300000Y-72600000D01*
X134840000Y-83740000D02*
X136000000Y-84900000D01*
X179200000Y-84733578D02*
X182991422Y-84733578D01*
X134840000Y-79500000D02*
X134840000Y-83740000D01*
%TO.N,L_out*%
X131100000Y-71900000D02*
X131500000Y-71500000D01*
X130700000Y-71900000D02*
X131100000Y-71900000D01*
X130700000Y-71900000D02*
X130700000Y-74900000D01*
X136920000Y-76500000D02*
X139920000Y-79500000D01*
X183000000Y-84075000D02*
X181058578Y-84075000D01*
X181058578Y-84075000D02*
X181000000Y-84133578D01*
X132300000Y-76500000D02*
X136920000Y-76500000D01*
X166400000Y-76700000D02*
X142720000Y-76700000D01*
X130700000Y-74900000D02*
X132300000Y-76500000D01*
X166400000Y-76700000D02*
X166300000Y-76600000D01*
X142720000Y-76700000D02*
X139920000Y-79500000D01*
%TO.N,Net-(U1-VCCP1I)*%
X191000000Y-86000000D02*
X190500000Y-85500000D01*
X191000000Y-89500000D02*
X191000000Y-86000000D01*
X184947463Y-83447463D02*
X183022463Y-83447463D01*
X183022463Y-83447463D02*
X183000000Y-83425000D01*
%TO.N,Net-(U1-VCCP2I)*%
X182950000Y-87950000D02*
X181900000Y-86900000D01*
X183000000Y-82125000D02*
X179375000Y-82125000D01*
X182950000Y-89000000D02*
X182950000Y-87950000D01*
X181900000Y-86900000D02*
X177500000Y-86900000D01*
X177500000Y-84000000D02*
X177500000Y-84733578D01*
X179375000Y-82125000D02*
X177500000Y-84000000D01*
%TO.N,XTO*%
X178500000Y-66200000D02*
X178500000Y-67450000D01*
X183000000Y-81475000D02*
X183475000Y-81475000D01*
X185550000Y-68500000D02*
X182550000Y-71500000D01*
X183500000Y-81500000D02*
X184500000Y-81500000D01*
X186087500Y-68500000D02*
X185550000Y-68500000D01*
X178500000Y-67450000D02*
X182550000Y-71500000D01*
X186087500Y-68500000D02*
X186087500Y-70587500D01*
X183475000Y-81475000D02*
X183500000Y-81500000D01*
X186087500Y-70587500D02*
X186500000Y-71000000D01*
%TO.N,XTI*%
X186125000Y-80825000D02*
X186400000Y-81100000D01*
X187912500Y-68500000D02*
X187912500Y-72312500D01*
X183000000Y-80825000D02*
X186125000Y-80825000D01*
X184050000Y-64500000D02*
X187912500Y-68362500D01*
X190248530Y-77500000D02*
X190274265Y-77525735D01*
X180700000Y-64500000D02*
X184050000Y-64500000D01*
X186500000Y-77700000D02*
X186700000Y-77500000D01*
X186700000Y-77500000D02*
X190248530Y-77500000D01*
X187912500Y-72312500D02*
X191100000Y-75500000D01*
%TO.N,Net-(U1-VCCXI)*%
X174450000Y-72500000D02*
X175350000Y-73400000D01*
X183000000Y-79525000D02*
X181025000Y-79525000D01*
X174450000Y-72500000D02*
X174500000Y-72500000D01*
X181025000Y-79525000D02*
X178500000Y-77000000D01*
X175350000Y-73400000D02*
X177500000Y-73400000D01*
%TO.N,unconnected-(U1-DIN-Pad24)*%
X183675000Y-78875000D02*
X183800000Y-79000000D01*
X183000000Y-78875000D02*
X183675000Y-78875000D01*
%TO.N,Net-(U1-VDDI)*%
X180375000Y-76375000D02*
X179000000Y-76375000D01*
X180925000Y-76925000D02*
X180375000Y-76375000D01*
X183000000Y-76925000D02*
X180925000Y-76925000D01*
X179950000Y-72450000D02*
X179000000Y-73400000D01*
X179950000Y-71500000D02*
X179950000Y-72450000D01*
%TO.N,Net-(P1-CC)*%
X188967157Y-79467157D02*
X190000000Y-80500000D01*
X188967157Y-79000000D02*
X188967157Y-79467157D01*
X190000000Y-80500000D02*
X196892157Y-80500000D01*
%TO.N,D+*%
X168500000Y-80000000D02*
X171406546Y-80000000D01*
X147100000Y-77400000D02*
X161264744Y-77400000D01*
X166087500Y-80000000D02*
X168500000Y-80000000D01*
X173732282Y-77674264D02*
X173732282Y-77024262D01*
X173732282Y-77024262D02*
X174981544Y-75775000D01*
X165087500Y-79000000D02*
X166087500Y-80000000D01*
X161264744Y-77400000D02*
X162864744Y-79000000D01*
X162864744Y-79000000D02*
X165087500Y-79000000D01*
X185200000Y-78555087D02*
X187644913Y-81000000D01*
X184223529Y-75775000D02*
X185200000Y-76751471D01*
X187644913Y-81000000D02*
X196892157Y-81000000D01*
X174981544Y-75775000D02*
X184223529Y-75775000D01*
X185200000Y-76751471D02*
X185200000Y-78555087D01*
X145000000Y-79500000D02*
X147100000Y-77400000D01*
X171406546Y-80000000D02*
X173732282Y-77674264D01*
%TO.N,D-*%
X186848529Y-81500000D02*
X196892157Y-81500000D01*
X174981545Y-85225000D02*
X176725000Y-85225000D01*
X153580000Y-83000000D02*
X165087500Y-83000000D01*
X167073252Y-81014248D02*
X170969791Y-81014248D01*
X186151471Y-83091985D02*
X186151471Y-82197058D01*
X183909878Y-85333578D02*
X186151471Y-83091985D01*
X170969791Y-81014248D02*
X173852537Y-83896994D01*
X176725000Y-85225000D02*
X176833578Y-85333578D01*
X173852537Y-83896994D02*
X173852537Y-84000000D01*
X173852537Y-83896994D02*
X173852537Y-84095992D01*
X150080000Y-79500000D02*
X153580000Y-83000000D01*
X165087500Y-83000000D02*
X167073252Y-81014248D01*
X186151471Y-82197058D02*
X186848529Y-81500000D01*
X173852537Y-84095992D02*
X174981545Y-85225000D01*
X176833578Y-85333578D02*
X183909878Y-85333578D01*
%TO.N,Net-(P1-VCONN)*%
X189967157Y-83500000D02*
X190967157Y-82500000D01*
X188879657Y-83500000D02*
X189967157Y-83500000D01*
%TO.N,Net-(C3-Pad2)*%
X127700000Y-71900000D02*
X127700000Y-80300000D01*
X127700000Y-80300000D02*
X124800000Y-83200000D01*
%TO.N,Net-(C4-Pad2)*%
X117400000Y-75800000D02*
X117400000Y-73500000D01*
X119900000Y-71000000D02*
X120500000Y-71000000D01*
X117400000Y-75800000D02*
X117800000Y-75800000D01*
X117400000Y-73500000D02*
X119900000Y-71000000D01*
X117800000Y-75800000D02*
X118000000Y-76000000D01*
%TD*%
M02*
