%TF.GenerationSoftware,KiCad,Pcbnew,10.0.0*%
%TF.CreationDate,2026-05-28T19:41:03-07:00*%
%TF.ProjectId,adapter,61646170-7465-4722-9e6b-696361645f70,rev?*%
%TF.SameCoordinates,Original*%
%TF.FileFunction,Profile,NP*%
%FSLAX46Y46*%
G04 Gerber Fmt 4.6, Leading zero omitted, Abs format (unit mm)*
G04 Created by KiCad (PCBNEW 10.0.0) date 2026-05-28 19:41:03*
%MOMM*%
%LPD*%
G01*
G04 APERTURE LIST*
%TA.AperFunction,Profile*%
%ADD10C,0.050000*%
%TD*%
%TA.AperFunction,Profile*%
%ADD11C,0.100000*%
%TD*%
G04 APERTURE END LIST*
D10*
X110000000Y-56750000D02*
X110000000Y-99250000D01*
X110000000Y-99250000D02*
X193814657Y-99500000D01*
X193814657Y-85550000D02*
X193814657Y-99500000D01*
X193827157Y-57000000D02*
X110000000Y-56750000D01*
X193827157Y-77350000D02*
X193827157Y-57000000D01*
%TO.C,P1*%
D11*
X193814657Y-85550000D02*
X195517157Y-85550000D01*
X195517157Y-85550000D02*
X195517157Y-85150000D01*
X197667157Y-77350000D02*
X193827157Y-77350000D01*
X197667157Y-85150000D02*
X195517157Y-85150000D01*
X198117157Y-77675000D02*
X197667157Y-77350000D01*
X198117157Y-78125000D02*
X198117157Y-77675000D01*
X198117157Y-84375000D02*
X198117157Y-84780000D01*
X198117157Y-84780000D02*
X197667157Y-85150000D01*
X198167157Y-81350000D02*
X198167157Y-80350000D01*
X198367157Y-81550000D02*
X198567157Y-81550000D01*
X198567157Y-78325000D02*
X198317157Y-78325000D01*
X198567157Y-80150000D02*
X198367157Y-80150000D01*
X198567157Y-84175000D02*
X198317157Y-84175000D01*
X198767157Y-79950000D02*
X198767157Y-78525000D01*
X198767157Y-81750000D02*
X198767157Y-83975000D01*
X198117157Y-84375000D02*
G75*
G02*
X198317157Y-84175000I200001J-1D01*
G01*
X198167157Y-80350000D02*
G75*
G02*
X198367157Y-80150000I200000J0D01*
G01*
X198317157Y-78325000D02*
G75*
G02*
X198117157Y-78125000I0J200000D01*
G01*
X198367157Y-81550000D02*
G75*
G02*
X198167157Y-81350000I1J200001D01*
G01*
X198567157Y-78325000D02*
G75*
G02*
X198767157Y-78525000I0J-200000D01*
G01*
X198567157Y-81550000D02*
G75*
G02*
X198767157Y-81750000I-1J-200001D01*
G01*
X198767157Y-79950000D02*
G75*
G02*
X198567157Y-80150000I-200000J0D01*
G01*
X198767157Y-83975000D02*
G75*
G02*
X198567157Y-84175000I-200001J1D01*
G01*
%TD*%
M02*
