M48
; DRILL file KiCad 10.0.0 date 2026-05-28T19:41:08
; FORMAT={-:-/ absolute / metric / decimal}
; #@! TF.CreationDate,2026-05-28T19:41:08-07:00
; #@! TF.GenerationSoftware,Kicad,Pcbnew,10.0.0
; #@! TF.FileFunction,Plated,1,2,PTH
FMAT,2
METRIC
; #@! TA.AperFunction,Plated,PTH,ViaDrill
T1C0.300
; #@! TA.AperFunction,Plated,PTH,ComponentDrill
T2C1.400
%
G90
G05
T1
X118.0Y-84.0
X156.41Y-79.5
X162.37Y-77.37
X166.1Y-78.627
X166.4Y-76.7
X169.4Y-83.0
X170.695Y-81.614
X171.0Y-72.0
X171.0Y-74.5
X171.89Y-80.7
X172.2Y-89.4
X172.5Y-83.9
X173.132Y-77.426
X174.0Y-79.5
X174.174Y-75.674
X174.453Y-83.847
X176.5Y-71.5
X177.5Y-73.4
X177.5Y-77.5
X177.5Y-84.734
X177.5Y-86.9
X177.626Y-76.6
X178.5Y-77.0
X178.6Y-84.134
X179.0Y-73.4
X179.0Y-76.375
X180.0Y-74.0
X181.0Y-78.0
X181.0Y-82.825
X181.0Y-84.134
X181.5Y-80.5
X183.0Y-67.5
X184.5Y-81.5
X184.947Y-83.447
X186.4Y-81.1
X186.5Y-71.0
X186.5Y-77.7
X186.5Y-91.0
X187.055Y-83.5
X190.274Y-77.526
X190.5Y-85.5
X190.967Y-82.5
X191.0Y-83.5
X191.1Y-75.5
X191.467Y-78.6
X192.8Y-79.6
X194.572Y-77.98
X194.572Y-84.75
T2
X134.84Y-79.5
X139.92Y-79.5
X145.0Y-79.5
X150.08Y-79.5
X155.16Y-79.5
X160.24Y-79.5
M30
